<svg xmlns="http://www.w3.org/2000/svg" xmlns:xlink="http://www.w3.org/1999/xlink" width="50.179" height="45.967" viewBox="0 0 50.179 45.967">
  <defs>
    <clipPath id="clip-path">
      <rect id="Rectangle_18" data-name="Rectangle 18" width="50.179" height="45.967" fill="none"/>
    </clipPath>
  </defs>
  <g id="icon" clip-path="url(#clip-path)">
    <path id="Path_11" data-name="Path 11" d="M371.058,144.1c-.616,0-2.216-.239-2.216-1.306v-6.133a8.005,8.005,0,0,0-.046-.92.92.92,0,0,1-.276-.662c0-1.057,1.6-1.3,2.216-1.3a4.919,4.919,0,0,1,.818.074A2.051,2.051,0,0,1,373,134.7a2.41,2.41,0,0,1,.193.736,15.1,15.1,0,0,1,.092,2.041v5.361C373.274,143.83,371.72,144.1,371.058,144.1Z" transform="translate(-354.387 -117.799)" fill="#9bb6e4"/>
    <path id="Path_12" data-name="Path 12" d="M388.592,144.87c-.607,0-2.2-.23-2.216-1.3v-1.011c0-.846.074-1.683.074-2.529v-3.292a7.494,7.494,0,0,0-.055-1.361.773.773,0,0,1,.055-.717,2.014,2.014,0,0,1,1.407-.818,4.487,4.487,0,0,1,.7-.064,4.275,4.275,0,0,1,.69.064l.607.184a1.591,1.591,0,0,1,.8.634,7.191,7.191,0,0,1,.23,2.1v2.887c0,.92,0,1.839-.064,2.694v1.168a.919.919,0,0,1-.276.671,3.1,3.1,0,0,1-1.949.69Z" transform="translate(-355.82 -117.799)" fill="#9bb6e4"/>
    <path id="Path_13" data-name="Path 13" d="M370,157.22a4.376,4.376,0,0,1,.69.064l.4.12.212.064a1.6,1.6,0,0,1,.8.634c.055.175.1.34.147.515l.423.129a24.3,24.3,0,0,0,3.522.782h2.234a24.094,24.094,0,0,0,2.547-.083,43.547,43.547,0,0,0,6.63-1.076,18.989,18.989,0,0,0,3.255-1.453c.708-.441,1.453-.92,2.161-1.425a14.907,14.907,0,0,0,2.06-1.839,16.66,16.66,0,0,0,1.784-2.832,21.6,21.6,0,0,0,1.407-3.393,13.139,13.139,0,0,0,.359-2.428c.046-.92,0-1.839,0-2.759s-.064-1.839-.166-2.933a15.629,15.629,0,0,0-.423-2.244c-.34-1.131-.736-2.354-1.287-3.963a11.856,11.856,0,0,0-.754-1.719,16.33,16.33,0,0,0-1.839-2.9,45.909,45.909,0,0,0-3.963-3.614l-.156-.129-.184-.147a51.208,51.208,0,0,0-4.23-3.3,25.877,25.877,0,0,0-4.184-1.655,16.718,16.718,0,0,0-1.94-.432h-.837a19.936,19.936,0,0,0-2.152.083l-2.6.349-.432.055a23.113,23.113,0,0,0-2.759.57,11.953,11.953,0,0,0-1.839.791c-.469.248-.92.506-1.4.772a21.469,21.469,0,0,0-2.28,1.545,14.468,14.468,0,0,0-1.839,1.775c-.46.552-.92,1.113-1.342,1.7l-.368.478c-.34.441-.671.92-.984,1.352a14.711,14.711,0,0,0-1.572,2.933c-.221.589-.4,1.2-.6,1.839l-.055.175-.046.147c-.1.359-.2.736-.276,1.113s-.147.671-.211,1.011a11.387,11.387,0,0,0-.12,1.674v3.393a28.886,28.886,0,0,0,.368,3.632,24.832,24.832,0,0,0,.634,3.053c.2.69.4,1.379.653,2.041a16.265,16.265,0,0,0,1.508,2.759,19.518,19.518,0,0,0,1.747,2.372,18.258,18.258,0,0,0,2.9,2.437,2.575,2.575,0,0,1,1.3-.294,4.294,4.294,0,0,1,1.434.248l.469.166a3.044,3.044,0,0,1,.414-.11,4.385,4.385,0,0,1,.791-.046Zm7.945,4.947a22.924,22.924,0,0,1-4.165-.34,34.094,34.094,0,0,1-4.9-1.4H367.79a9.287,9.287,0,0,1-2.455-.285,10.115,10.115,0,0,1-3.375-1.471,19.312,19.312,0,0,1-2.676-2.271,20.091,20.091,0,0,1-2.326-2.961,18.392,18.392,0,0,1-.993-1.628,15.153,15.153,0,0,1-1.278-3.329,35.98,35.98,0,0,1-.837-3.614,40.529,40.529,0,0,1-.451-6.74,15.79,15.79,0,0,1,.193-2.584c.12-.662.294-1.306.414-1.729a28.836,28.836,0,0,1,1.159-3.586,16.927,16.927,0,0,1,2.225-3.586,35.5,35.5,0,0,1,2.253-2.814,15.336,15.336,0,0,1,2.3-2.234,30.9,30.9,0,0,1,2.943-1.839l.092-.055a15.807,15.807,0,0,1,2.906-1.434,21.73,21.73,0,0,1,3.623-.92c1.131-.166,2.253-.331,3.384-.46,1.37-.166,2.694-.2,3.926-.23h.165a14.106,14.106,0,0,1,3.356.441c.561.138,1.113.313,1.729.506l.248.083c.487.156.966.331,1.444.506l.432.156.12.046c.349.129.708.257,1.039.414a26.665,26.665,0,0,1,5.793,4.074l.166.138.671.561a30.814,30.814,0,0,1,4.809,4.671,14.161,14.161,0,0,1,1.241,2.014,16.5,16.5,0,0,1,.772,1.637c.34.855.625,1.756.919,2.621l.193.616a24.489,24.489,0,0,1,.92,3.338,29.068,29.068,0,0,1,.276,3.393c0,1.076,0,2.179,0,3.375a13.865,13.865,0,0,1-.717,3.5,20.047,20.047,0,0,1-1.306,3.016,14.133,14.133,0,0,1-1.729,2.759,14.758,14.758,0,0,1-2.565,2.446,33.78,33.78,0,0,1-2.933,1.885,21.666,21.666,0,0,1-2.814,1.4,23.245,23.245,0,0,1-3.614,1.012c-1.168.239-2.345.4-3.237.506-1.149.138-2.382.276-3.623.34-1.048.028-1.867.055-2.63.055Z" transform="translate(-353.17 -116.421)" fill="#9bb6e4"/>
    <path id="Path_14" data-name="Path 14" d="M380.078,159.081a10.6,10.6,0,0,1-3.347-.4,7.016,7.016,0,0,1-1.26-.589c-.515-.294-1.021-.588-1.49-.92a9.408,9.408,0,0,1-1.71-1.71l-.074-.092a6.065,6.065,0,0,1-.46-.625,1,1,0,0,1-.074-.138l-.046-.092a.864.864,0,0,1-.147-1.011,1.628,1.628,0,0,1,.8-.634,3.559,3.559,0,0,1,1.333-.267,2.437,2.437,0,0,1,.671.083,2.547,2.547,0,0,1,1.444.837,2.205,2.205,0,0,1,.147.248,5.028,5.028,0,0,0,.653.92l.11.129a6.438,6.438,0,0,0,.57.552,5.791,5.791,0,0,0,1,.69,6.437,6.437,0,0,0,.837.414h1.554a11.429,11.429,0,0,0,2.078-1.839,4.8,4.8,0,0,0,.7-1.159,1.591,1.591,0,0,1,.8-.634,3.127,3.127,0,0,1,1.269-.257,4.073,4.073,0,0,1,.736.074,2.078,2.078,0,0,1,1.389.818.92.92,0,0,1,0,.818,8.891,8.891,0,0,1-2.382,2.933,6.326,6.326,0,0,1-2.262,1.48,8.562,8.562,0,0,1-1.444.331A13.891,13.891,0,0,1,380.078,159.081Z" transform="translate(-354.616 -119.311)" fill="#9bb6e4"/>
  </g>
</svg>
